<svg xmlns="http://www.w3.org/2000/svg" xmlns:xlink="http://www.w3.org/1999/xlink" width="530.24" height="315.337" viewBox="0 0 530.24 315.337">
  <defs>
    <linearGradient id="linear-gradient" x1="1812.144" y1="-411.358" x2="1812.987" y2="-411.358" gradientUnits="objectBoundingBox">
      <stop offset="0" stop-color="#edada5"/>
      <stop offset="0.143" stop-color="#ebaea5"/>
      <stop offset="0.166" stop-color="#e9b0a6"/>
      <stop offset="0.245" stop-color="#e29f99"/>
      <stop offset="0.297" stop-color="#dd928f"/>
    </linearGradient>
  </defs>
  <g id="Сгруппировать_567" data-name="Сгруппировать 567" transform="translate(-192.645 -584.235)">
    <g id="Сгруппировать_566" data-name="Сгруппировать 566">
      <path id="Контур_617" data-name="Контур 617" d="M586.519,710.276c.62,4.252,1.525,8.984,2.143,11.658.33,1.431,1.138,3.54.666,4.144-1.219,1.56-2.114.14-5.488,1.031s-6.126,1.549-7.752.83c-.9-.4-1.689-1.872.777-2.5s4.762-1.919,5.222-3.392-1.851-11.408-1.851-11.408Z" fill="#b2924b"/>
      <path id="Контур_618" data-name="Контур 618" d="M585.522,688.472c-.787,10.433,1.023,19.735,2.788,28.47-3.428,2.754-4.514,1.787-7.653,1.969.07-6.249-7.209-28.145-2.248-37.456,3.721-6.985,29.014,5.146,33.125,3.8,2.5-.816,4.551.463,6.825-.179,1.685-.476,6.144-1.378,7.6-1.082,2.666,6.288,1.408,11.579-5.909,15.106C613.54,702.241,596.789,697.315,585.522,688.472Z" fill="#0a66a2"/>
      <path id="Контур_619" data-name="Контур 619" d="M566.555,645.785c2.332-5.015,24.379-24.95,21.975-25.225s-12.576-2-12.576-2,27.7-16.826,31.183-14.9c1.976,1.093,4.135,33.173,2.76,32.069s-6.84-11.526-7.714-8.938-10.418,33.2-12.642,35.122C586.81,664.275,564.309,650.618,566.555,645.785Z" fill="#c0eded"/>
      <path id="Контур_620" data-name="Контур 620" d="M576.359,656.932a3.632,3.632,0,0,1,4.083-.253c1.267.7,2.918,2.645,2,3.46-.362.321-2.6-.32-2.6-.32Z" fill="#4c3c29"/>
      <path id="Контур_621" data-name="Контур 621" d="M696.2,631.008c-14.286,1.446-24.405.04-24.405-4.138s36.9-21.2,46.776-14.437.581,47-5.811,47.8-6.392-20.278-6.973-22.442S696.2,631.008,696.2,631.008Z" fill="#f6da36"/>
      <path id="Контур_654" data-name="Контур 654" d="M588.433,650.4a18.527,18.527,0,0,0,2.549,8.9c.689-1.644,1.012-2.252,1.012-2.252Z" fill="#1f1e38" opacity="0.25"/>
      <path id="Контур_655" data-name="Контур 655" d="M614.209,661.293c-2.746,1.708-10.324,4.571-11.054,4.542-8.177-7.1-8.366-9.033-10.072-12.049-1.592-2.02-1.686-7.583-3.785-5.587-1.588,1.51-.686,4.38.263,6.031.979,1.7,8.983,14.626,11.84,16.348S619.47,664.3,619.47,664.3Z" fill="#4c3c29"/>
    </g>
    <g id="Сгруппировать_565" data-name="Сгруппировать 565">
      <g id="Сгруппировать_564" data-name="Сгруппировать 564">
        <circle id="Эллипс_9" data-name="Эллипс 9" cx="24.569" cy="24.569" r="24.569" transform="translate(392.288 587.864)" fill="#fff"/>
        <path id="Контур_595" data-name="Контур 595" d="M492.638,648.209a9.9,9.9,0,0,1-1.007.556q-1.185-.542-2.426-1.107l-.606-.515,2.425-2.682,1.614-.47C493.441,645.5,493.962,647.386,492.638,648.209Z" fill="#191836" opacity="0.14"/>
        <path id="Контур_598" data-name="Контур 598" d="M477.871,637.861c.211,2.125.011,1.845,2.746,2.148.89.1,1.833.333,1.636-1.774S477.785,636.995,477.871,637.861Z" fill="#fccca7"/>
        <path id="Контур_599" data-name="Контур 599" d="M444.3,615.561c1.238,2.833,1.013,7.845,0,9.806s-5.44,5.132-7.185,5.29S444.3,615.561,444.3,615.561Z" fill="#84becf"/>
        <path id="Контур_600" data-name="Контур 600" d="M444.3,615.561c1.069,8.813-6.219,14.469-7.185,15.1-.474.307,2.321-2.92,4.314-6.779C443.368,620.12,444.588,615.834,444.3,615.561Z" fill="#0a66a1" opacity="0.77"/>
        <path id="Контур_601" data-name="Контур 601" d="M418.782,594.987a22.272,22.272,0,0,0-6.221.382,14.186,14.186,0,0,0-10.968,9.37" fill="none" stroke="#84becf" stroke-linecap="round" stroke-miterlimit="10" stroke-width="9"/>
        <path id="Контур_602" data-name="Контур 602" d="M427.547,599.291a16.112,16.112,0,0,0-3.659-2.807" fill="none" stroke="#84becf" stroke-linecap="round" stroke-miterlimit="10" stroke-width="9"/>
        <path id="Контур_603" data-name="Контур 603" d="M610.824,660.561c-.833.485-12.389,1.754-12.987,1.669-5.544-.785-14.66-2.245-16.538-1.96-4.5.683-6.168-2.161-5.46-2.924,1.282-1.382,2.257.166,6.136.182,2.339.01,12.486-.139,16.194.342.707.025,10.571-2.339,13.454-3.14C611.623,654.73,611.657,660.076,610.824,660.561Z" fill="#4c3c29"/>
        <path id="Контур_604" data-name="Контур 604" d="M613.32,653.013c-2.959,1.209-4.021,1.453-4.535,3.846s-3.872,4.706-3.2,7.015,2.636,4.194,2.781,6.722,4.5,12.375-.666,16.332c-3.066,2.347,3.941,16.726,9.808,10.422s11.916-8.325,6.915-16.135c-5.747-8.976-.614-17.13-.462-20.963s-4.083-8.239-4.083-8.239Z" fill="#7a1b30"/>
        <g id="Сгруппировать_399" data-name="Сгруппировать 399">
          <path id="Контур_605" data-name="Контур 605" d="M614.087,650.177c.1-.357.2-.762.283-1.22.032-.16.061-.328.089-.5a1.1,1.1,0,0,1,.566-.131,1.4,1.4,0,0,0,.868-.16c.458-.282.985.338.479.908A5.121,5.121,0,0,1,614.087,650.177Z" fill="#1f1e38" opacity="0.28"/>
          <path id="Контур_606" data-name="Контур 606" d="M613.97,647.633c-.342,2.853-.335,4.1-1.03,4.694s-1.8,2.225-.933,2.488a16.6,16.6,0,0,0,4.428-.45,2.818,2.818,0,0,0,1.48-.834s-.146-4.627-.506-7.909S613.97,647.633,613.97,647.633Z" fill="#f3afb3"/>
          <path id="Контур_607" data-name="Контур 607" d="M617.914,653.531a2.805,2.805,0,0,1-1.48.834,16.541,16.541,0,0,1-4.427.45c-.863-.263.246-1.9.933-2.488a1.954,1.954,0,0,0,.568-1.1,25.632,25.632,0,0,0,.352-2.641c.033-.3.069-.612.11-.952,0,0,3.079-5.292,3.439-2.01S617.914,653.531,617.914,653.531Z" fill="#4c3c29"/>
          <path id="Контур_608" data-name="Контур 608" d="M613.34,651.757a7.245,7.245,0,0,0,.45-2.407c.737-.542,2.318-.331,2,.35A3.131,3.131,0,0,1,613.34,651.757Z" fill="#1f1e38" opacity="0.25"/>
          <g id="Сгруппировать_398" data-name="Сгруппировать 398">
            <path id="Контур_609" data-name="Контур 609" d="M611.315,642.683c-.541,2.462-1.714,3.655-.825,3.8.671.111-.346,5.186,2.064,4.321,2.395-.86,4.327-2.314,4.26-4.96s-.038-4.2-.038-4.2Z" fill="#4c3c29"/>
            <path id="Контур_610" data-name="Контур 610" d="M611.176,643.042c.929.887,4.637,1.469,4.864,5.407.1,1.788-.306,6.077,4.341,7.1,3.658.364,3.784-.076,4.943-1.077,1.5-1.292,2.807,3,6,2.313,1.818-.391,5.95-1.774,3.593-4.972-1.134-1.538-2.53.366-3.751-.571-1.1-.847-1.452-3.568-3.324-4.579-3.392-1.831-4.008,0-5.274-.467s.493-6.719-6.6-7.3c-1.84-.149-3.362,1.517-4.306,1.542a1.265,1.265,0,0,0-1.155,1.107A1.809,1.809,0,0,0,611.176,643.042Z" fill="#211805"/>
          </g>
        </g>
        <path id="Контур_611" data-name="Контур 611" d="M590.105,661.111l.831.118,1.262-2.746-.528-.828Z" fill="#1f1e38" opacity="0.25"/>
        <path id="Контур_612" data-name="Контур 612" d="M621.852,663.08c-6.126,4.236-11.352,9.114-12.552,11.56-.608-2.977-.877-3.13-.929-4.043a2.626,2.626,0,0,0-.6-1.659c-.51.9,5.451-1.606,5.451-1.606Z" fill="#1f1e38" opacity="0.28"/>
        <path id="Контур_613" data-name="Контур 613" d="M626.9,692.1c-.734,4.967-2.995,7.388-7.432,8.743-3.777,1.154-16.11,1.257-19.713,1.261a29.738,29.738,0,0,1,7.114-6.064L626.9,692.1Z" fill="#1f1e38" opacity="0.25"/>
        <path id="Контур_614" data-name="Контур 614" d="M588.69,727.913c-.775.195-4.164.435-7.264.871a25.212,25.212,0,0,1-4.61.015l12.4-4.779.081.3C589.948,727.284,589.464,727.72,588.69,727.913Z" fill="#1f1e38" opacity="0.25"/>
        <g id="Сгруппировать_400" data-name="Сгруппировать 400">
          <path id="Контур_615" data-name="Контур 615" d="M575.63,702.61c-3.323,2.02-15.475,8.79-17.294,10.638-.933.948-1.98,2.663-2.65,2.484-1.731-.464-.958-1.523-2.895-4.019s-3.362-4.744-3.339-6.353c.013-.889.962-2.069,2.358-.237a6.137,6.137,0,0,0,5,2.467c1.389-.138,15.979-10.1,15.979-10.1Z" fill="#b2924b"/>
          <path id="Контур_616" data-name="Контур 616" d="M622.379,686.771c-1.728.329-8.231.84-15.346,1.617s-20.234,2.485-24.407,3.879c-10.733,3.584-24.019,12.454-24.179,12.956.157,2.444,3.8,6.212,3.8,6.212,2.47-1.578,12.8-8.043,21.964-11.179,9.739.792,35.467-.43,37.044-2.179C624.1,694.916,622.379,686.771,622.379,686.771Z" fill="#0d608c"/>
        </g>
        <g id="Сгруппировать_563" data-name="Сгруппировать 563">
          <g id="Сгруппировать_562" data-name="Сгруппировать 562">
            <g id="Сгруппировать_560" data-name="Сгруппировать 560">
              <path id="Контур_524" data-name="Контур 524" d="M202.179,893.139c0,2.977,112.692,6.433,242.537,6.433s235.1-2.413,235.1-5.39-105.26-5.389-235.1-5.389S202.179,890.163,202.179,893.139Z" fill="#32323f" opacity="0.16"/>
              <path id="Контур_525" data-name="Контур 525" d="M367.412,773.963l-.014,0a49.348,49.348,0,0,0-10.328-2.387,38.9,38.9,0,0,0-9.936-.63c-17.9,1.274-28.743,16.156-30.5,32.449-1.718,15.95,5.269,33.251,22.861,40.459,35.063,20.469-8.923,32.885-21.992,8.877-22.771,14.367-2.495,41.353,18,40.832,31.832,8.082,53.194-29.545,38.835-56.515-5.21-11.02-21.427-17.928-30.735-25.971-6.454-14.943,16.357-13.306,23.625-8.071,7.358,7.313,12.09,4.546,14.608-3.731a39.341,39.341,0,0,0,1-4.174,20.379,20.379,0,0,0,.2-2.7C383.147,782.6,375.783,776.934,367.412,773.963Z" fill="#348dd8"/>
              <path id="Контур_526" data-name="Контур 526" d="M479.216,870.089l-26.91,3.332-2.047-16.543c3.4-1.294,21.959-.374,23.454-5.464,5.53-26.438-13.748-16.642-26.108-15.968l-1.816-14.653c10.741-1.765,27.8.341,27.626-12.24-.044-3.174-1.186-7.285-3.805-12.631-2.031.891-5.422,1.221-9.437,1.432-14.647.761-37.6-.092-33.04,18.71,2.016,7.39,6.276,72.9,12.2,77.044,4.344,7.283,32.371-1.6,38.183-.729C485.668,891.175,482.607,876.284,479.216,870.089Z" fill="#e26230"/>
              <path id="Контур_527" data-name="Контур 527" d="M585.769,757.748c-8.938-.326-18.158,2.653-26.324,9.138a53.476,53.476,0,0,0-9.507,9.864v0a65.087,65.087,0,0,0-5.138,8.027c-5.048,9.256-8.781,20.957-10.466,35.214-16.055,91.262,80.06,105.553,90.745,13.3C633.466,785.27,610.71,758.648,585.769,757.748Zm13.507,71.762c-4.746,51.737-49.441,45.242-39.137-5.734C564.925,772.3,609.589,778.849,599.276,829.51Z" fill="#59c431"/>
              <path id="Контур_528" data-name="Контур 528" d="M587.835,757.882c-9.591,4.177-27.141,10.664-31.841,12.015C564.3,761.966,575.41,756.519,587.835,757.882Z" fill="#1f1e38" opacity="0.25"/>
              <path id="Контур_529" data-name="Контур 529" d="M473.415,808.553c-3.159-2.112-10.359-7.165-13.242-11.2,4.015-.211,7.406-.541,9.437-1.432C472.229,801.268,473.371,805.379,473.415,808.553Z" fill="#1f1e38" opacity="0.25"/>
              <path id="Контур_530" data-name="Контур 530" d="M383.046,792.4a20.379,20.379,0,0,1-.2,2.7,39.341,39.341,0,0,1-1,4.174c-3.938-3.483-9.431-16.644-11.257-17.221-1.589-.5-2.723-.745-2.9-1.907-.125-.8,1.941-2.38,1.834-3.36s-1.506-1.088-2.113-2.824v0l.014.007,3.314,1.675Z" fill="#191838" opacity="0.2"/>
              <path id="Контур_531" data-name="Контур 531" d="M347.134,770.942v0c-12.082,13.284-18.954,23.77-30.5,32.447C318.391,787.1,329.231,772.216,347.134,770.942Z" fill="#191838" opacity="0.2"/>
              <path id="Контур_532" data-name="Контур 532" d="M549.938,776.752c-1.294,4.183-1.48,6.639-2.864,7.3a11.852,11.852,0,0,1-2.274.726A65.087,65.087,0,0,1,549.938,776.752Z" fill="#1f1e38" opacity="0.25"/>
              <g id="Сгруппировать_385" data-name="Сгруппировать 385">
                <path id="Контур_533" data-name="Контур 533" d="M505.221,756.389a29.562,29.562,0,0,0-49.662,21.685c0,.1,0,.2,0,.3a29.566,29.566,0,1,0,49.66-21.985Zm-20.1,33.39a11.707,11.707,0,1,1,11.709-11.705A11.709,11.709,0,0,1,485.125,789.779Z" fill="#f6da36"/>
                <rect id="Прямоугольник_141" data-name="Прямоугольник 141" width="28.503" height="99.073" transform="matrix(-0.769, -0.64, 0.64, -0.769, 649.113, 717.209)" fill="#f6da36"/>
                <path id="Контур_534" data-name="Контур 534" d="M651.1,714.822a29.605,29.605,0,0,0-19.209-21.475A29.229,29.229,0,0,0,626.9,692.1h0a29.571,29.571,0,0,0-34.223,29.2q0,.69.033,1.37a29.567,29.567,0,1,0,58.388-7.852Zm-28.853,18.185a11.707,11.707,0,1,1,11.708-11.7A11.707,11.707,0,0,1,622.246,733.007Z" fill="#f6da36"/>
                <rect id="Прямоугольник_142" data-name="Прямоугольник 142" width="28.503" height="150.522" transform="matrix(-0.74, -0.672, 0.672, -0.74, 266.035, 855.072)" fill="#f6da36"/>
                <rect id="Прямоугольник_143" data-name="Прямоугольник 143" width="28.466" height="91.351" transform="translate(381.827 740.092) rotate(-62.562)" fill="#f6da36"/>
                <path id="Контур_535" data-name="Контур 535" d="M612.282,745.64l-4.2,1.618L514.2,783.431l-3.581,1.381-10.234-26.563,4.831-1.861,71.6-27.589,12.4-4.779,3.494-1.346,9.334-3.6Z" fill="#f6da36"/>
                <path id="Контур_536" data-name="Контур 536" d="M397.527,716.17v0a29.57,29.57,0,1,0-32.955,30.411h0a29.565,29.565,0,0,0,32.97-29.369C397.545,716.862,397.538,716.516,397.527,716.17Zm-29.548,12.745a11.706,11.706,0,1,1,11.709-11.7A11.709,11.709,0,0,1,367.979,728.915Z" fill="#f6da36"/>
                <path id="Контур_537" data-name="Контур 537" d="M271.132,849.461v0a29.619,29.619,0,0,0-19.881-20.5h0a29.545,29.545,0,1,0,19.884,20.5ZM242.6,868.944a11.707,11.707,0,1,1,11.71-11.7A11.709,11.709,0,0,1,242.6,868.944Z" fill="#f6da36"/>
              </g>
              <g id="Сгруппировать_389" data-name="Сгруппировать 389">
                <g id="Сгруппировать_386" data-name="Сгруппировать 386">
                  <path id="Контур_538" data-name="Контур 538" d="M391.708,889.331c-.18-1.861-.046-6.577-.046-6.577l4.939-.179-.266,7.081-3.265,2.251Z" fill="#fff"/>
                  <path id="Контур_539" data-name="Контур 539" d="M391.308,887.8c-.416-.332-1.344.832-1.535,1.614-.438,1.789-5.948,2.017-6.929,2.178a1.538,1.538,0,0,0,1.2,2.7c2.18-.009,9.164-.015,11.55-.041a1.1,1.1,0,0,0,1.055-.828c.429-1.728.482-5.782-.184-5.838C395.566,887.8,392.9,889.066,391.308,887.8Z" fill="#1f1e3a"/>
                </g>
                <g id="Сгруппировать_387" data-name="Сгруппировать 387">
                  <path id="Контур_540" data-name="Контур 540" d="M410.684,889.363c-.191-1.86-.083-6.577-.083-6.577l4.937-.207-.225,7.082-3.252,2.27Z" fill="#fff"/>
                  <path id="Контур_541" data-name="Контур 541" d="M410.14,887.249c-.531.035-.435.552-.62,1.336-.422,1.793-6.693,2.955-7.673,3.126a1.537,1.537,0,0,0,1.222,2.691c2.18-.029,9.164-.1,11.549-.143a1.1,1.1,0,0,0,1.048-.837c.414-1.732.568-6.487-.1-6.537C414.673,887.1,412.559,887.086,410.14,887.249Z" fill="#1f1e3a"/>
                </g>
                <path id="Контур_542" data-name="Контур 542" d="M417.751,827.819c-.062.841-.146,1.757-.259,2.76a235.489,235.489,0,0,0-1.1,24.5c.219,8.018-.462,26.775-.462,29.648-2.339,1.068-3.787.735-7.128,0,0,0-.594-15.476-1.252-29.025-.535-11-.689-9.9-2.63-23.907v0c-.022.065-.495,1.43-1.183,3.529-1.474,4.482-3.935,12.314-5.116,17.983-1.839,8.846-.879,31.9-1.649,32.7-2.294,1.408-6.177,1.544-7.214-.41,0,0-.439-28.513.377-32.979.553-3.037,5.223-32.794,6.265-40.787,0,0,20.569-4.671,21.2,2.646a27.2,27.2,0,0,1,.1,2.727c-.017,1.136.044,2.189.1,3.343A53.176,53.176,0,0,1,417.751,827.819Z" fill="#3b3b4c"/>
                <path id="Контур_543" data-name="Контур 543" d="M406.727,827.776l0,.011a.616.616,0,0,1-.058-.04A.576.576,0,0,1,406.727,827.776Z" fill="#1f1e3a" opacity="0.46"/>
                <path id="Контур_544" data-name="Контур 544" d="M404.916,831.8v0c-.022.065-.926,2.715-1.615,4.815l.808-8.467A19.488,19.488,0,0,0,404.916,831.8Z" fill="#1f1e3a" opacity="0.54"/>
                <path id="Контур_545" data-name="Контур 545" d="M417.871,825.621c-.17-.04-8.1-1.8-9.17-5.934,0,0,6.892.617,9.1.862C417.894,822.436,417.94,824.553,417.871,825.621Z" fill="#1f1e3a" opacity="0.35"/>
                <path id="Контур_546" data-name="Контур 546" d="M404.335,783.333l4.214-.957c.142-1.908-1.378-5.172-1.875-7.068-.381-1.456-2.671-4.42-2.671-4.42l-1.364,3.867-.511.553s.982,3.318.325,4.789a11.061,11.061,0,0,1-1.485,3.16C400.235,784.206,404.335,783.333,404.335,783.333Z" fill="#894c31"/>
                <path id="Контур_547" data-name="Контур 547" d="M402.128,775.878s.836,2.386.5,3.62c2.513,1.318,4.167-2.664,3.556-3.43-.382-.479-2.414-.865-2.414-.865Z" fill="#191838" opacity="0.2"/>
                <path id="Контур_548" data-name="Контур 548" d="M372.855,781.872c-2.993-2.039-4.085-.5-4.42-1.328-.747-1.844,1.538-1.558,1.829-2.406,1.008-2.935-2.9-2.845-2.867-4.181.038-1.376,2.712-1.242,5.28,2.051,2.866,3.674,4.293,4.451,4.293,4.451Z" fill="#894c31"/>
                <path id="Контур_549" data-name="Контур 549" d="M408.517,778.038c-1.873-.7-2.749,3.162-4.317,3.165-.951,0-.708-.411-1.118-.9-.252-.3-.485-.635-.957-.206-9.6,8.732-2.309,33.28-3.567,34.851-1.029,1.285,6.211,4.852,11,4.037,6.573-1.118,6.768-8.435,6.693-9.841s-2.323-25.389-2.323-25.389S411.174,780.932,408.517,778.038Z" fill="#fff"/>
                <path id="Контур_550" data-name="Контур 550" d="M374.785,777.957c1.423.143,6.852,10.047,9.947,11.791,2.71,1.525,4.581-4.632,17.393-9.651a25.614,25.614,0,0,1-.751,5.678c-1.114,5.392,1.519,9.5.392,16.046-1.457,8.462-.142,17.329-2.312,19.089-1.264,1.025-2.909,1.109-4.7-1.174-2.824-3.593.091-14.4.583-16.986.191-1.006.543-2.354.863-3.754.5-2.193.886-1.224.886-8.83-.849.28-9.621,9.436-14.22,6.379-4.526-3.008-10.087-13.968-11.134-15.138" fill="#131e04"/>
                <path id="Контур_551" data-name="Контур 551" d="M417.692,822.258c-2.964,1.607-6.715,1.361-8.975-1.555-1.872-2.419.441-5.17-.658-10.549-.088-.429-.181-.906-.276-1.419a64.465,64.465,0,0,1-1.209-10.554c.005-1.339.044-2.752.106-4.185.3-6.891,1.166-14.245,1.448-16.039a17.241,17.241,0,0,1,7.848,5.6c1.411,1.8,1.994,6.724,1.874,10.28-.041,1.166-.084,2.1-.133,2.893-.1,1.616-.217,2.619-.355,3.717-.117.931-.249,1.932-.4,3.429C416.554,808.014,420.005,821.005,417.692,822.258Z" fill="#131e04"/>
                <path id="Контур_552" data-name="Контур 552" d="M414.288,789.17c-.946,4.494,5.118,11.209,3.059,14.222-.569-3.064-7.325-5.108-7.314-8.237.005-1.339-1.395-5.953-1.332-7.386Z" fill="#1f1e3a" opacity="0.15"/>
                <path id="Контур_553" data-name="Контур 553" d="M408.7,787.769c9.388,15.913,9.766,17.417,9.573,20.189s-6.247,16.566-6.247,16.566,4.4,1.849,4.967,1.2,7.424-15.848,7.268-17.482-6.78-22.145-7.779-23.838-6.143-3.987-6.514-1.3A18.71,18.71,0,0,1,408.7,787.769Z" fill="#131e04"/>
                <g id="Сгруппировать_388" data-name="Сгруппировать 388">
                  <path id="Контур_554" data-name="Контур 554" d="M400.436,769.326c-.352,1.642-2.555,4.588-1.434,4.728s-.746,3.469.443,3.661c2.879.465,6.441-.939,6.994-2.287a27.58,27.58,0,0,0,.853-5.271Z" fill="#894c31"/>
                  <path id="Контур_555" data-name="Контур 555" d="M403.2,771.3a3.154,3.154,0,0,1-2.774-1.975c-.36-1.506,1.192-3.181,3.321-3.655a6.461,6.461,0,0,1,4.545,1.238,4.927,4.927,0,0,1,1.722,3.543c.279,1.967-3.28,5.619-3.668,5.142-.453-.556.525-2.148.054-2.611-.711-.7-.9-.039-1.635.5-.791.574-2.1.447-1.1-.728S404.04,771.312,403.2,771.3Z" fill="#191838"/>
                </g>
                <path id="Контур_556" data-name="Контур 556" d="M417.559,810.721c-2.543,6.711-4.926,12.4-4.926,12.4s-.159-4.82.957-6.577S417.559,810.721,417.559,810.721Z" fill="#1f1e3a" opacity="0.15"/>
              </g>
              <g id="Сгруппировать_392" data-name="Сгруппировать 392">
                <path id="Контур_557" data-name="Контур 557" d="M510.607,823.512l1.781,2.6a.908.908,0,0,1,.138.315c.324,1.4,2.556,11.083,3.312,14.39.005.024.01.047.013.071.408,2.77,1.4,9.65,1.046,11.881-.725,4.531-21.062,27.768-21.856,29.075s-.92,2.654-.293,5.162c.006.025.014.05.022.074h0a.924.924,0,0,1-1.582.9l-2.776-3.325a.905.905,0,0,1-.151-.256l-.959-2.445a.928.928,0,0,1,.122-.9s19.294-25.9,19.607-28.285-4.264-18.283-4.264-18.283c-.087-.263-1.484-.259-1.743-.357-.9-.337-3.044-1.761-3.473-7.716-.129-1.79,2.778-3.594,3.712-4.126a.915.915,0,0,1,.593-.108l6.13.939A.922.922,0,0,1,510.607,823.512Z" fill="#edada5"/>
                <path id="Контур_558" data-name="Контур 558" d="M503.245,890.839" fill="#0d1a3d"/>
                <path id="Контур_559" data-name="Контур 559" d="M506.432,825.333s-3.218,56.377-2.8,59.052,1.143,3.074,1.856,3.8l2.25,2.653-4.5,1.488-3.471-3.205s-1.625-30.59-1.558-33.476S494.689,837,494.689,837c-.032-.74-.8-6.963-1.212-7.579-1.093-1.638-1.8-11.777,3.173-10.949C504.82,819.836,506.432,825.333,506.432,825.333Z" fill="#edada5"/>
                <path id="Контур_560" data-name="Контур 560" d="M506.937,894.058" fill="#79abd1"/>
                <path id="Контур_561" data-name="Контур 561" d="M499.338,885.422a4.366,4.366,0,0,0-1.228,4.8,11.245,11.245,0,0,1,.859,4.946h.814s-.125-3.627.626-4.3c1.239.641,5.97,4.4,7.1,4.584s4.187.737,4.574.179a2.411,2.411,0,0,0-.648-2.832,30.6,30.6,0,0,0-4.112-2.55s-.17-.03-.18.128c-.022.36-.091.958-1.59.654-1.984-.4-4.785-3.831-5.672-5.524A.341.341,0,0,0,499.338,885.422Z" fill="#7d5151"/>
                <path id="Контур_562" data-name="Контур 562" d="M491.132,878.439a4.357,4.357,0,0,0-3.824,3.174,11.236,11.236,0,0,1-2.192,4.514l.66.478s2.016-3.013,3.016-3.115c.63,1.247,2.258,6.929,3.078,7.883s2.857,2.831,3.6,2.831,1.408-1.278,1.129-2.676a27.28,27.28,0,0,0-1.844-4.481s-.121-.125-.221,0c-.229.279-.633.723-1.671-.4-1.378-1.5-1.644-5.949-1.369-7.83A.326.326,0,0,0,491.132,878.439Z" fill="#7d5151"/>
                <path id="Контур_563" data-name="Контур 563" d="M512.121,811.864c1.313,16.471,6.744,31.364,5.413,32.343-1.683.582-5.343-2.394-10.188-.282-5.42,2.363-13.627,4.6-14.45,3.015-.923-1.775,2.733-4.4,2.189-8.173-.724-5.033-5.382-11.882-5.4-15.476-.025-4.865,5.646-13.274,5.646-13.274S505.835,814.595,512.121,811.864Z" fill="#3b3b4b"/>
                <path id="Контур_564" data-name="Контур 564" d="M505.224,782.147l2.737.751,5.067,15.781s-.748,9.5-2.72,12.93c-2.566,4.464-11.981.3-11.654-.7,3-9.255,3.122-28.55,3.122-28.55Z" fill="#fff"/>
                <g id="Сгруппировать_390" data-name="Сгруппировать 390">
                  <path id="Контур_565" data-name="Контур 565" d="M490.513,816.929a4.551,4.551,0,0,0-.754-1.214.335.335,0,0,1,.086-.5c.81-.263,2.425,1,2.425,1l.626.9-1.222.483Z" fill="url(#linear-gradient)"/>
                  <path id="Контур_566" data-name="Контур 566" d="M493.375,812.554s1.9,2.877,1.94,3.179a2.971,2.971,0,0,1,.176,1.818,2.794,2.794,0,0,1-2.926,1.237,19.745,19.745,0,0,1-3.607-2.286c.535-.336,1.338-.3,2.625.541a19.543,19.543,0,0,0-.614-3.263l-.693-1.146,1.8-1.025Z" fill="#edada5"/>
                </g>
                <path id="Контур_567" data-name="Контур 567" d="M501.813,782.147c-5.967,2.063-18.951,14.211-18.831,17.4.13,3.45,7.742,15.024,7.742,15.024,2.768-2.433,3.162-2.195,3.162-2.195s-5.453-10.8-5.237-12.192c.305-1.973,4.97-6.589,6.478-5.42s3.384,8.331,1.983,11.568-3.087,3.6-2.789,5.274,9.271,6.964,10.075,6.05-1.4-12.816-.654-15.432c.668-2.328,3.713-5.938,2.1-9.091A100.166,100.166,0,0,1,501.813,782.147Z" fill="#ea92ea"/>
                <path id="Контур_568" data-name="Контур 568" d="M541.266,782.587c2.981-.352,5.208,2.245,5.808,1.465s-1.152-2.292-.175-3.217c1-.946,3.017-5.022,1.924-5.306-1.259-.327-2.143,3.033-4.013,3.373a43.983,43.983,0,0,0-4.384,1.008Z" fill="#f3afb3"/>
                <path id="Контур_569" data-name="Контур 569" d="M511.355,782.518c1.777-.417,11.245-.118,14.9-.863,8.023-1.635,15.984-3.118,15.984-3.118,1.318.814.832,4.168.832,4.168-1.851,1.756-12.215,2.664-16.6,3.588-1.637.345-9.495,2.016-11.594,3.247-1.826,1.071.847,4.426.49,6.568-.778,4.675-3.639,12.741-1.771,20.5.474,1.966-3.428.913-4.073-.986-1.946-5.725,3.786-16.2,2.387-19.858s-2.663-4.216-3.154-7.6c-.463-3.185-.8-5.265-.8-5.265A26.066,26.066,0,0,0,511.355,782.518Z" fill="#ea92ea"/>
                <path id="Контур_570" data-name="Контур 570" d="M507.942,778.159c-.663,3.053-.5,4.637,0,5.5s.346,5.923-.633,5.885c-.484-.019-2.113-2.7-3.153-3.448s-2.18-3.793-2.18-3.793,2.233-3.881,3.768-7.126S507.942,778.159,507.942,778.159Z" fill="#f3afb3"/>
                <path id="Контур_571" data-name="Контур 571" d="M507.53,781.038c.021-.4.068-.854.144-1.355.024-.176.054-.358.087-.548a1.191,1.191,0,0,0-.533-.335,1.522,1.522,0,0,1-.833-.475c-.369-.452-1.13,0-.814.763A5.576,5.576,0,0,0,507.53,781.038Z" fill="#1f1e38" opacity="0.28"/>
                <g id="Сгруппировать_391" data-name="Сгруппировать 391">
                  <path id="Контур_572" data-name="Контур 572" d="M510.156,771.45c.818,2.617,2.2,3.8,1.253,4.041-.715.183.867,5.585-1.82,4.878-2.669-.7-4.895-2.1-5.075-4.968s-.358-4.556-.358-4.556Z" fill="#f3afb3"/>
                  <path id="Контур_573" data-name="Контур 573" d="M509.411,771.423c-1.731.055-1.1,2.357-1.644,2.839a.933.933,0,0,1-1.238-.263c-.192-.416-.81-.549-1.445-.252-.763.356-.123,1.278.181,1.892a1.875,1.875,0,0,1-.258,1.525c-.483.98.4,1.973-1.048,2.058-.618.037-1.427-2.952-2.508-3.389-.472.984-1.543,1.54-2.908-.036-1.2-1.385.509-2.621,1.636-3.28-.872-.183-4.4-1.13-2.4-4.155,1.535-2.684,5.338-.838,5.3.656,1.461-.1,1.61-1.312,4.6-.765,3.4.62,3.33,3.17,2.85,4.224C510.334,772.907,509.882,771.408,509.411,771.423Z" fill="#ff9522"/>
                </g>
              </g>
              <path id="Контур_574" data-name="Контур 574" d="M486.555,743.362c.067-1.856-.349-6.524-.349-6.524l-4.907.118.688,7.005L485.359,746Z" fill="#fccca7"/>
              <path id="Контур_575" data-name="Контур 575" d="M486.844,742.651c.512-.133.307.362.511,1.134.469,1.769,6.934,1.7,7.912,1.838a1.527,1.527,0,0,1-1.139,2.706c-2.165.032-9.1.159-11.471.178a1.09,1.09,0,0,1-1.063-.8c-.459-1.708-.392-4.373.268-4.442C482.856,742.923,484.711,743.2,486.844,742.651Z" fill="#1f1e38"/>
              <g id="Сгруппировать_393" data-name="Сгруппировать 393">
                <path id="Контур_576" data-name="Контур 576" d="M440.171,737.945c1.456-1.152,4.741-4.494,4.741-4.494l-3.27-3.66-4.888,5.064.634,3.887Z" fill="#fccca7"/>
                <path id="Контур_577" data-name="Контур 577" d="M441,737.683c.433.3-.077.468-.532,1.125-1.043,1.5,3.2,6.379,3.728,7.216a1.528,1.528,0,0,1-2.8.887c-1.428-1.629-6.019-6.828-7.57-8.62a1.09,1.09,0,0,1-.078-1.33c1-1.457,3.077-3.133,3.557-2.676C438.2,734.823,439.2,736.417,441,737.683Z" fill="#1f1e38"/>
              </g>
              <path id="Контур_578" data-name="Контур 578" d="M472.581,671.167c2.883,7.755,9.536,35.752,10.149,39.811s4.276,27.225,4.111,28.584a27.308,27.308,0,0,1-6.749.956c-.6-3.381-2.472-21.2-4.91-26.929s-9.664-22.529-9.664-22.529c-1.44,7.478-2.091,16.318-4.916,24.2-4.421,10.255-16.849,20.691-16.849,20.691-3.541-2.152-5.787-4.153-5.235-4.331,2.716-3.768,14.56-14.788,15.05-19.2s-1.038-26.134.406-36.879c.149-1.111,15.551-3.542,15.551-3.542Z" fill="#3b3b4b"/>
            </g>
            <g id="Сгруппировать_394" data-name="Сгруппировать 394">
              <path id="Контур_590" data-name="Контур 590" d="M462.377,635.323l6.44,2.971c-2.316.521-4.985,0-5.83-.944a1.3,1.3,0,0,1-.111-.142,11.624,11.624,0,0,1-.953-2.1C462.074,635.185,462.225,635.253,462.377,635.323Z" fill="#fdada5"/>
              <path id="Контур_591" data-name="Контур 591" d="M465.925,632.376l-2.421-1.009,3.719-1.337.048.1c.613,1.27,2.481,3.083,2.5,3.858Z" fill="#fdada5"/>
            </g>
            <g id="Сгруппировать_561" data-name="Сгруппировать 561">
              <path id="Контур_579" data-name="Контур 579" d="M468.138,696.575c-1.509-3.188-2.621-5.514-2.621-5.514.388-2.248.657-4.88.657-4.88A92.59,92.59,0,0,1,468.138,696.575Z" fill="#1f1e38" opacity="0.57"/>
              <path id="Контур_580" data-name="Контур 580" d="M453.34,690.659c1.875-1.606,9.022-6.906,10.655-12.89l-10.22-.5C453.4,681.06,453.314,685.837,453.34,690.659Z" fill="#1f1e38" opacity="0.28"/>
              <path id="Контур_581" data-name="Контур 581" d="M463.949,646.567l-3.348-2.883c.735-1.835,1.5-6.567,2.463-8.068,1.06-1.647,1.173-1.48,1.173-1.48L466.191,637l.92,1.35a5.271,5.271,0,0,0-.678,2.005,11.185,11.185,0,0,0,.1,3.867C466.766,645.45,463.949,646.567,463.949,646.567Z" fill="#fccca7"/>
              <path id="Контур_582" data-name="Контур 582" d="M467.111,638.352a7.327,7.327,0,0,0-.709,2.211c-2.851.031-3.461-2.49-2.566-2.911a18.341,18.341,0,0,1,2.355-.65Z" fill="#191836" opacity="0.14"/>
              <path id="Контур_583" data-name="Контур 583" d="M461.274,640.306c1.688-.576,2.577,1.573,3.974,1.56.847-.007.764-.8,1.122-1.251.22-.281.691-.118,1.366-.111,1.771.02,4.883,34.735,4.883,34.735a5.87,5.87,0,0,1-4.892,2.515c-3.564.164-10.3-1.113-10.251-2.412s.611-32.933.611-32.933A9.669,9.669,0,0,1,461.274,640.306Z" fill="#fff"/>
              <path id="Контур_584" data-name="Контур 584" d="M479.05,646.164c-.7-1.649-.406-2.457-1.211-3.291s-1.566-1.663-.967-2.226c.812-.763.738-1.26.91-2.171.5-2.64,4.617-1.626,4.734,1.542.038,1.018-1.66,3.294-.447,5.193S479.05,646.164,479.05,646.164Z" fill="#fccca7"/>
              <path id="Контур_585" data-name="Контур 585" d="M467.587,640.666c.109,1.1-.016,4.89.079,8.241s-1.45,11.032-1.173,17.153-.2,10.869,1.949,14.877c2.389,4.463,10.153,1.993,9.383.239a57.579,57.579,0,0,1-4.4-15.583,23.034,23.034,0,0,0-2.229-7.274c-.628-1.262,6.034,6.862,10.279,6.974,4.665.123,1.323-19.589.885-21.477a14.832,14.832,0,0,0-4.659-.378c-.134,3.117,1.719,13.818,1.43,13.541-.581-.557-3.4-13.171-11.291-16.294A.543.543,0,0,0,467.587,640.666Z" fill="#459f81"/>
              <path id="Контур_586" data-name="Контур 586" d="M467.587,640.666c.109,1.1-.016,4.89.079,8.241s-1.45,11.032-1.173,17.153-.2,10.869,1.949,14.877c2.389,4.463,10.153,1.993,9.383.239a57.579,57.579,0,0,1-4.4-15.583,23.034,23.034,0,0,0-2.229-7.274c-.628-1.262,6.034,6.862,10.279,6.974,4.665.123,1.323-19.589.885-21.477a14.832,14.832,0,0,0-4.659-.378c-.134,3.117,1.719,13.818,1.43,13.541-.581-.557-3.4-13.171-11.291-16.294A.543.543,0,0,0,467.587,640.666Z" fill="#191836" opacity="0.14"/>
              <path id="Контур_587" data-name="Контур 587" d="M451.374,657.673v.008c.1.888,1.361,5.842,1.441,6.285.094.521,1.321,5.9,1.291,6.854-.126,4.066-.126,4.066-2.1,10.16-.857,2.647,3.571,3.628,4.8,2.943,1.009-.565,4.748-1.171,6.4-4.422,4.069-7.983.165-11.726-.59-14.433a3.064,3.064,0,0,1-.121-.7c-.116-2.639,1.118-7.858.475-14.767q-.062-.676-.15-1.374c-.9-7.119-1.5-5.862-1.842-7.859,0,0-2.618-.857-5.833,2.327C450.3,647.493,451.361,657.561,451.374,657.673Z" fill="#459f81"/>
              <path id="Контур_588" data-name="Контур 588" d="M459.261,654.444a48.9,48.9,0,0,0,3.356,10.624,3.064,3.064,0,0,1-.121-.7c-.116-2.639,1.118-7.858.475-14.767a12.3,12.3,0,0,0-1.31-2.227s-1.951-1.648-2.823-.755S458.769,651.921,459.261,654.444Z" fill="#191836" opacity="0.14"/>
              <path id="Контур_589" data-name="Контур 589" d="M450.419,646.927" fill="none" stroke="#575768" stroke-linecap="round" stroke-linejoin="round" stroke-width="2.634"/>
              <g id="Сгруппировать_395" data-name="Сгруппировать 395">
                <path id="Контур_592" data-name="Контур 592" d="M459.08,633.8c-7.892-3.645-14.628-6.765-18.117-8.383l-2.551-1.182,2.321-2.37,1.646.685c2.848,1.186,9.12,3.8,16.648,6.944v0C458.307,631.1,459.852,632.125,459.08,633.8Z" fill="#84becf"/>
                <path id="Контур_593" data-name="Контур 593" d="M504.774,654.68c-2.712-1.182-7.43-3.312-13.143-5.915q-1.185-.542-2.426-1.107c-6.245-2.855-13.428-6.156-20.389-9.363a6.552,6.552,0,0,0,1.075-.335c1.072-.434-1.364-3.273-.346-3.643a.307.307,0,0,0,.227-.328c16.2,6.771,33.487,14.028,35.32,14.912C508.614,650.6,508.215,656.182,504.774,654.68Z" fill="#84becf"/>
                <path id="Контур_594" data-name="Контур 594" d="M444.42,609.155a27.447,27.447,0,1,0-2.04,13.4A27.582,27.582,0,0,0,444.42,609.155Zm-25.28,25.1A22.538,22.538,0,1,1,439.4,609.644,22.534,22.534,0,0,1,419.14,634.251Z" fill="#84becf"/>
              </g>
            </g>
          </g>
          <g id="Сгруппировать_397" data-name="Сгруппировать 397">
            <path id="Контур_596" data-name="Контур 596" d="M485.184,647.95c1.065-1.416,1.9-1.522,2.219-2.647s.665-2.208,1.43-1.925c1.037.384.876-.1,1.732-.368,2.482-.783,3.214,3.187.576,4.778a7.609,7.609,0,0,0-3.669,3.114C486.437,652.9,485.184,647.95,485.184,647.95Z" fill="#fccca7"/>
            <g id="Сгруппировать_396" data-name="Сгруппировать 396">
              <path id="Контур_597" data-name="Контур 597" d="M461.889,642.291c11.895,9.806,10.972,15.489,13.556,15.9,1.535.245,9.082-9.721,9.9-11.43.479-1,4.681,2.722,3.945,3.4s-8.209,14.616-13.118,14.492c-4.866-.124-19.538-17.144-21.425-19.223C453.622,644.187,457.861,638.971,461.889,642.291Z" fill="#459f81"/>
            </g>
          </g>
          <g id="Сгруппировать_406" data-name="Сгруппировать 406">
            <path id="Контур_622" data-name="Контур 622" d="M224.461,830.992c-6.552-1.053,26.431,5.472,27.518-.3l-18.8.689C232.27,831.387,225.2,830.6,224.461,830.992Z" fill="#0a0a0a" opacity="0.18"/>
            <g id="Сгруппировать_401" data-name="Сгруппировать 401">
              <path id="Контур_623" data-name="Контур 623" d="M217.117,867.16c-.707-1.621-1.967-5.9-1.967-5.9l4.39-1.607,1.834,6.448-2.277,2.981Z" fill="#f8a8a1"/>
              <path id="Контур_624" data-name="Контур 624" d="M216.54,866.569c-.5.061-.146.428-.058,1.184.2,1.731-5.552,3.922-6.369,4.388-.422.241-.279,2.842,1.953,2,1.93-.727,8.12-3.034,10.227-3.844a1.037,1.037,0,0,0,.662-1.082c-.189-1.674-1.178-4.012-1.787-3.843C220.169,865.419,218.622,866.314,216.54,866.569Z" fill="#211a2c"/>
            </g>
            <path id="Контур_625" data-name="Контур 625" d="M220.968,830.089c4.616,8.438,13.227,20.881,12.462,22.74-.752,1.826,3.484,4.463,2.88,5.456s-2.279,2.132-4.743,4.377-5.461,4.5-4.476,1.191,2.972-6.522,2.042-7.765-10.342-17.4-10.05-18.363S220.968,830.089,220.968,830.089Z" fill="#0a0a0a" opacity="0.14"/>
            <g id="Сгруппировать_402" data-name="Сгруппировать 402">
              <path id="Контур_626" data-name="Контур 626" d="M229.45,857.526c-1.2-1.3-3.8-4.928-3.8-4.928l3.619-2.961,3.85,5.487-1.171,3.564Z" fill="#f8a8a1"/>
              <path id="Контур_627" data-name="Контур 627" d="M228.711,857.158c-.452.222,0,.452.335,1.137.759,1.568-3.956,5.528-4.574,6.238a1.455,1.455,0,0,0,2.5,1.248c1.584-1.322,6.673-5.535,8.4-6.991a1.038,1.038,0,0,0,.27-1.24c-.729-1.519-2.431-3.4-2.951-3.043C231.761,854.879,230.594,856.233,228.711,857.158Z" fill="#211a2c"/>
              <path id="Контур_628" data-name="Контур 628" d="M250.017,819.433c-15.9-1.949-35.766-3.93-38.434.044-3.39,5.049,12.859,38.839,15.483,37s6.557-3.2,5.667-4.722-16.576-26.478-12.57-26.294,26.589,4.365,28.132,3.474S250.017,819.433,250.017,819.433Z" fill="#3b3b4c"/>
              <path id="Контур_629" data-name="Контур 629" d="M250.017,819.433c-15.9-1.949-35.766-3.93-38.434.044-3.39,5.049,12.859,38.839,15.483,37s6.557-3.2,5.667-4.722-16.576-26.478-12.57-26.294,26.589,4.365,28.132,3.474S250.017,819.433,250.017,819.433Z" fill="#0a0a0a" opacity="0.18"/>
            </g>
            <path id="Контур_630" data-name="Контур 630" d="M253.876,820.1c.441,2.79.734,7.851-1.9,10.59-1.434,1.492-3.736,2.295-7.355,1.667-5.685-.986-30.677-1.762-30.519-.475s8.019,30.53,7.008,31.884-6.7,2.8-7.15,1.229-10.818-34.932-6.783-39.435c3.4-3.795,31.305-4.242,34.034-5.611S253.876,820.1,253.876,820.1Z" fill="#3b3b4c"/>
            <g id="Сгруппировать_403" data-name="Сгруппировать 403">
              <path id="Контур_631" data-name="Контур 631" d="M193.092,811.394c-.211.911-.742,2.571-.232,3.3s7.823,9.053,10.644,10.082c3.318,1.21,14.81-1.607,15.041-1.657.619-.134,1.615-4.08,1.217-6.415a15.563,15.563,0,0,0-1.527-4.239c-.136-.267-5.626,2.375-5.626,2.375l-2.931,6.957Z" fill="#3b3b4c"/>
              <path id="Контур_632" data-name="Контур 632" d="M217.454,811.108c3.581,5.377,1.448,11.254.779,11.387-7.6,1.51-11.437,2.135-13.327,1.784s-12.363-8.267-12.081-11.653c.222-2.672,4.363-9.611,4.363-9.611s6.621,9.366,8.939,8.858S216.708,809.988,217.454,811.108Z" fill="#545465"/>
              <path id="Контур_633" data-name="Контур 633" d="M197.351,804.348c-1.07,1.88-4.01,7.5-3.686,8.549.971,3.159,9.346,9.954,9.518,9.249s2.054-9.652,1.475-9.954C202.934,811.293,197.351,804.348,197.351,804.348Z" fill="#fff"/>
              <path id="Контур_634" data-name="Контур 634" d="M206.285,812.642c-.28,3.663-1.649,9.412-1.1,9.838s8.436-.059,8.781-.741.228-9.5-.067-9.664S206.285,812.642,206.285,812.642Z" fill="#3b3b4c"/>
              <path id="Контур_635" data-name="Контур 635" d="M214.867,815.107c.11,1.91-.037,3.486.475,3.7s3.006.075,3.171-.22.038-3.48-.641-4.37C217.588,813.845,214.776,813.528,214.867,815.107Z" fill="#3b3b4c"/>
            </g>
            <path id="Контур_636" data-name="Контур 636" d="M216.08,811.4a7.359,7.359,0,0,0-2.032.6,9.218,9.218,0,0,1-4.453.253,5.256,5.256,0,0,0-4.19,2.7c-.6,1.378,2.473.28,3.353.372,3.382.351,1.091,1.431,1.961,2.082s.561-1.184,3.148-1.854c1.554-.4,2.312-.111,2.892-.491S216.08,811.4,216.08,811.4Z" fill="#fdada5"/>
            <path id="Контур_637" data-name="Контур 637" d="M231.036,807.608c-1.449,2.133-17.47,3.378-18.078,3.7-.455.239.872,4.6,2.341,4.666,1.208.058,21.923-1.66,22.308-6.369.289-3.546,5.877-18.063,5.877-18.063s-6.992-4.669-6.932-1.017C236.567,791.418,231.748,806.56,231.036,807.608Z" fill="#0868a8"/>
            <path id="Контур_638" data-name="Контур 638" d="M240.333,792.084l4.4-1.3a46.021,46.021,0,0,0-1.136-6.765,6.159,6.159,0,0,0-1.619-2.806l-.809,1.819-1.893.81s.167.021.292.544c.206.86.4,3.5-.869,4.842C237.9,790.058,240.333,792.084,240.333,792.084Z" fill="#fdada5"/>
            <path id="Контур_639" data-name="Контур 639" d="M239.594,784.452a8.232,8.232,0,0,1,.042,2.625c2.564.924,3.361-1.647,2.658-3.051a3.236,3.236,0,0,0-1.128-1S239.247,782.609,239.594,784.452Z" fill="#191838" opacity="0.14"/>
            <path id="Контур_640" data-name="Контур 640" d="M231.036,807.608c-1.449,2.133-17.47,3.378-18.078,3.7-.455.239.872,4.6,2.341,4.666,1.208.058,21.923-1.66,22.308-6.369.289-3.546,5.877-18.063,5.877-18.063s-6.992-4.669-6.932-1.017C236.567,791.418,231.748,806.56,231.036,807.608Z" fill="#0a0a0a" opacity="0.18"/>
            <g id="Сгруппировать_404" data-name="Сгруппировать 404">
              <path id="Контур_641" data-name="Контур 641" d="M234.566,779.463c.541,1.44.3,4.8,1.232,4.353s1.141,3.043,2.151,2.6c2.45-1.065,4.5-3.908,4.261-5.221a25.268,25.268,0,0,0-1.949-4.485Z" fill="#fdada5"/>
              <path id="Контур_642" data-name="Контур 642" d="M237.68,779.614c-.718.45-.656.641-1.311.636s-.082-1.177-1.154-.869-2.191.764-2.834-.324c-.93-1.575.65-2.01,1.641-2.248.638-.152.185-1.481,1.369-1.977.93-.389,1.075.193,1.919-.118.51-.187,1.083-1.447,2.125-1.22,1.933.42,1.388,2.323,3.117,2.93,2.017.708.211,5.119-.324,4.944-.624-.2-.657-1.916-1.249-2.039-.893-.187-.709.412-1.014,1.191-.326.834-1.395,1.382-1.205-.018S238.33,779.206,237.68,779.614Z" fill="#e2cd4d"/>
            </g>
            <path id="Контур_643" data-name="Контур 643" d="M244.416,786.217c-1.661-.369-2.606,2.434-3.928,2.619-.8.113-.431-1.137-.834-1.5-.248-.225-.48-.509-.786.059-5,9.291-.073,30.139-.073,30.139s3.924,2.929,12.122,2.817c4.991-.068,1.612-4.749,1.385-5.927s-4.249-24.179-4.249-24.179A16.193,16.193,0,0,0,244.416,786.217Z" fill="#fff"/>
            <path id="Контур_644" data-name="Контур 644" d="M261.938,828.71c-3.81,3.5-11.939-1.014-13.9-2.905-1.864-1.8-.141-5.608-.949-9.418-.137-.642-.308-1.321-.528-2.037-.032-.1-.064-.2-.1-.3s-.06-.178-.089-.268-.053-.157-.081-.235c-.04-.115-.082-.232-.125-.35s-.089-.232-.138-.356l-.1-.249h0c-.949-2.233-2.931-5.64-3.635-8.364q-.1-.369-.158-.719c-.008-.049-.017-.1-.025-.147s-.015-.1-.021-.145c-.024-.182-.045-.366-.064-.549-.005-.049-.009-.1-.013-.149a25.083,25.083,0,0,1,.2-5.523v-.017c.082-.623.182-1.24.29-1.848.742-4.131,1.948-7.743,1.97-8.881,0,0,1.345.422,4.672,3.644a16.849,16.849,0,0,1,4.066,8.289c.1.985.19,1.94.271,2.861a58.677,58.677,0,0,0,1.127,8.838c.784,3.015,1.836,7,4.215,10.4a19.989,19.989,0,0,0,2.477,2.807.124.124,0,0,0,.022.024C263.747,825.468,263.023,827.712,261.938,828.71Z" fill="#0866a4"/>
            <path id="Контур_645" data-name="Контур 645" d="M235.4,799.252c.3,1.531.737,4.455.972,6.5a25.156,25.156,0,0,1,.046,5.072,16.748,16.748,0,0,0,.987,7.231c1.017,2.254,1.864,1.706,2.812.693,1.625-1.737.681-5.994-.321-11.847-.952-5.571-2.509-8.811-2.2-13.49a21.284,21.284,0,0,1,1.441-6.326C233.623,789.375,235.227,798.4,235.4,799.252Z" fill="#0866a4"/>
            <path id="Контур_646" data-name="Контур 646" d="M221.654,815.356c-1.18.268-.624-.3-2.124.268a22.026,22.026,0,0,1-4.4,1.027c-1.136.177-3.482.729-4.15,2.259-.6,1.378,2.477.244,3.354.372,2.361.342.221.78,1.091,1.431s1.43-.533,4.018-1.2c1.553-.4,2.311-.112,2.892-.491S221.654,815.356,221.654,815.356Z" fill="#fdada5"/>
            <path id="Контур_647" data-name="Контур 647" d="M247.4,818.129c-.136-.642-.619-3.063-.839-3.779-.032-.1-.064-.2-.1-.3s-.06-.178-.089-.268-.053-.157-.081-.235c-.04-.115-.082-.232-.125-.35s-.089-.232-.138-.356l-.1-.249h0c-.949-2.233-2.931-5.64-3.635-8.364l.244-2.008,4.827-2.265C248.6,806.031,247.838,818.262,247.4,818.129Z" fill="#0a0a0a" opacity="0.18"/>
            <path id="Контур_648" data-name="Контур 648" d="M235.4,799.252c.3,1.531.737,4.455.972,6.5a25.156,25.156,0,0,1,.046,5.072,16.748,16.748,0,0,0,.987,7.231c1.017,2.254,1.864,1.706,2.812.693,1.625-1.737.681-5.994-.321-11.847-.952-5.571-2.509-8.811-2.2-13.49a21.284,21.284,0,0,1,1.441-6.326C233.623,789.375,235.227,798.4,235.4,799.252Z" fill="#0a0a0a" opacity="0.18"/>
            <path id="Контур_649" data-name="Контур 649" d="M235.848,810.139c-1.277,2.24-17.151,4.736-17.732,5.1-.436.273,1.229,4.513,2.7,4.468,1.209-.037,15.893-1.182,19.613-6.863,1.949-2.977,7.588-14.385,9.658-17.954s-6.5-5.33-6.8-1.689C243.212,794.1,236.475,809.039,235.848,810.139Z" fill="#0868a8"/>
            <g id="Сгруппировать_405" data-name="Сгруппировать 405">
              <path id="Контур_650" data-name="Контур 650" d="M240.571,789.833c.189-.063.93,3.535,2.818,5.173a5.29,5.29,0,0,0,1.774,1.052c1.937.651,5.361.937,7.92,1.3a8.15,8.15,0,0,0-1.061-2.808,23.154,23.154,0,0,1-6.1-.42,7.736,7.736,0,0,1-1.989-1.177,12.843,12.843,0,0,1-2.568-2.916c-.314-.471-.225-1.035-.715-1.19C240,788.642,240.328,789.913,240.571,789.833Z" fill="#191838" opacity="0.18"/>
              <path id="Контур_651" data-name="Контур 651" d="M239.753,788.914a.848.848,0,0,1,1.112-.542c.489.156.474.368.788.84a10.447,10.447,0,0,0,4.557,4.093c2.127.843,7.926-.66,10.978.939s3.238,4.781,7.718,6.817,10.063,1.444,11.38,2.062,2.071,1.151,1.886,1.689a2.814,2.814,0,0,1-2.2,1.375c-1.078.121-9.793-1.653-11.968-2.579-3.55-1.51-5.8-5.711-8.122-6.575s-7.692-.881-10.434-1.8c-3.058-1.028-4.59-5.341-4.832-5.261a.872.872,0,0,1-.839-.048C239.521,789.777,239.647,789.22,239.753,788.914Z" fill="#701010"/>
            </g>
          </g>
          <g id="Сгруппировать_407" data-name="Сгруппировать 407">
            <path id="Контур_652" data-name="Контур 652" d="M467.111,629.743c.669,1.519,3.455,4.2,2.434,4.574s1.418,3.209.346,3.644c-2.6,1.054-6.218.438-7.016-.754a28.127,28.127,0,0,1-1.892-4.936Z" fill="#fccca7"/>
            <path id="Контур_653" data-name="Контур 653" d="M465.039,632.527c.863-.2.626-1.481,1.644-2.064s1.128-2.261.795-3.588c-.484-1.921-.839.362-2,.326-.69-.022-1.055-.622-2.3-.1-.974.411-.649.968-1.5,1.375-.515.246-1.873-.283-2.473.688-1.113,1.8.7,2.846-.123,4.634-.962,2.086,3.644,4.094,3.908,3.55.308-.635-.937-1.974-.593-2.522.52-.825.829-.225,1.633.141.858.391,2.054,0,.874-.936S464.257,632.711,465.039,632.527Z" fill="#65373d"/>
          </g>
        </g>
      </g>
      <path id="Контур_656" data-name="Контур 656" d="M496.331,750.708c-4.308.265-12.2-1.265-15.307-1.915a29.641,29.641,0,0,1,15.307,1.915Z" fill="#1f1e38" opacity="0.25"/>
    </g>
  </g>
</svg>
